<svg width="16" height="16" xmlns="http://www.w3.org/2000/svg">
  <rect width="16" height="16" x="0" y="0" fill="#fff" />
  <rect width="1" height="1" x="0" y="2" fill="#000" />
  <rect width="1" height="1" x="1" y="1" fill="#000" />
  <rect width="1" height="1" x="1" y="4" fill="#000" />
  <rect width="1" height="1" x="2" y="0" fill="#000" />
  <rect width="1" height="1" x="2" y="3" fill="#000" />
  <rect width="1" height="1" x="3" y="2" fill="#000" />
  <rect width="1" height="6" x="3" y="5" fill="#000" />
  <rect width="1" height="1" x="4" y="4" fill="#000" />
  <rect width="1" height="1" x="4" y="11" fill="#000" />
  <rect width="6" height="4" x="5" y="0" fill="#000" />
  <rect width="6" height="4" x="5" y="12" fill="#000" />
  <rect width="3" height="1" x="6" y="8" fill="#000" />
  <rect width="1" height="1" x="9" y="7" fill="#000" />
  <rect width="1" height="1" x="10" y="6" fill="#000" />
  <rect width="1" height="1" x="11" y="4" fill="#000" />
  <rect width="1" height="1" x="11" y="11" fill="#000" />
  <rect width="1" height="6" x="12" y="5" fill="#000" />
  <rect width="1" height="2" x="13" y="7" fill="#000" />
</svg>
