<svg xmlns="http://www.w3.org/2000/svg" width="16" height="16">
  <rect width="1" height="8" x="2" y="4" fill="#fefefe" fill-opacity="0.5"/>
  <rect width="1" height="10" x="3" y="3" fill="#fefefe" fill-opacity="0.5"/>
  <rect width="8" height="16" x="4" y="0" fill="#fefefe" fill-opacity="0.5"/>
  <rect width="1" height="10" x="12" y="3" fill="#fefefe" fill-opacity="0.5"/>
  <rect width="1" height="8" x="13" y="4" fill="#fefefe" fill-opacity="0.5"/>
  <rect width="1" height="4" x="14" y="6" fill="#fefefe" fill-opacity="0.5"/>
  <rect width="6" height="8" x="5" y="4" fill="#fefefe"/>
  <rect width="8" height="6" x="4" y="5" fill="#fefefe"/>
  <rect width="1" height="6" x="3" y="5" fill="#000000"/>
  <rect width="1" height="1" x="4" y="4" fill="#000000"/>
  <rect width="1" height="1" x="4" y="11" fill="#000000"/>
  <rect width="6" height="4" x="5" y="0" fill="#000000"/>
  <rect width="6" height="4" x="5" y="12" fill="#000000"/>
  <rect width="3" height="1" x="6" y="8" fill="#000000"/>
  <rect width="1" height="1" x="9" y="7" fill="#000000"/>
  <rect width="1" height="1" x="10" y="6" fill="#000000"/>
  <rect width="1" height="1" x="11" y="4" fill="#000000"/>
  <rect width="1" height="1" x="11" y="11" fill="#000000"/>
  <rect width="1" height="6" x="12" y="5" fill="#000000"/>
  <rect width="1" height="2" x="13" y="7" fill="#000000"/>
</svg>
